<?xml version="1.0" encoding="UTF-8" standalone="no"?>
<!-- Created with Inkscape (http://www.inkscape.org/) -->

<svg
   xmlns:dc="http://purl.org/dc/elements/1.1/"
   xmlns:cc="http://creativecommons.org/ns#"
   xmlns:rdf="http://www.w3.org/1999/02/22-rdf-syntax-ns#"
   xmlns:svg="http://www.w3.org/2000/svg"
   xmlns="http://www.w3.org/2000/svg"
   xmlns:sodipodi="http://sodipodi.sourceforge.net/DTD/sodipodi-0.dtd"
   xmlns:inkscape="http://www.inkscape.org/namespaces/inkscape"
   width="210mm"
   height="297mm"
   viewBox="0 0 210 297"
   version="1.1"
   id="svg3768"
   inkscape:version="0.92.1 r15371"
   sodipodi:docname="paperbag.svg">
  <defs
     id="defs3762" />
  <sodipodi:namedview
     id="base"
     pagecolor="#ffffff"
     bordercolor="#666666"
     borderopacity="1.0"
     inkscape:pageopacity="0.0"
     inkscape:pageshadow="2"
     inkscape:zoom="0.64"
     inkscape:cx="825.83693"
     inkscape:cy="-36.481747"
     inkscape:document-units="mm"
     inkscape:current-layer="layer1"
     showgrid="false"
     inkscape:measure-start="0,0"
     inkscape:measure-end="0,0"
     inkscape:window-width="1366"
     inkscape:window-height="705"
     inkscape:window-x="-8"
     inkscape:window-y="-8"
     inkscape:window-maximized="1"
     inkscape:snap-bbox="true" />
  <metadata
     id="metadata3765">
    <rdf:RDF>
      <cc:Work
         rdf:about="">
        <dc:format>image/svg+xml</dc:format>
        <dc:type
           rdf:resource="http://purl.org/dc/dcmitype/StillImage" />
        <dc:title />
      </cc:Work>
    </rdf:RDF>
  </metadata>
  <g
     inkscape:groupmode="layer"
     id="layer2"
     inkscape:label="Layer 2">
    <rect
       style="fill:#784421;stroke-width:0.30133906"
       id="rect3798-1"
       width="10.414515"
       height="10.249395"
       x="-5.253706"
       y="6.0493116"
       transform="matrix(0.63645189,-0.7713164,0.62108582,0.78374256,0,0)"
       inkscape:transform-center-x="87.156706"
       inkscape:transform-center-y="38.814078" />
    <rect
       style="fill:#784421;stroke-width:0.30133396"
       id="rect3798-3-1"
       width="10.331453"
       height="10.331453"
       x="5.0053754"
       y="16.31492"
       transform="matrix(0.62886095,-0.77751779,0.62886095,0.77751779,0,0)" />
    <rect
       style="fill:#784421;stroke-width:0.30133396"
       id="rect3798-3-5-77"
       width="10.331453"
       height="10.331453"
       x="15.336825"
       y="26.646381"
       transform="matrix(0.62886095,-0.77751779,0.62886095,0.77751779,0,0)" />
    <rect
       style="fill:#784421;stroke-width:0.30133396"
       id="rect3798-3-4-3"
       width="10.331453"
       height="10.331453"
       x="25.668274"
       y="36.977825"
       transform="matrix(0.62886095,-0.77751779,0.62886095,0.77751779,0,0)" />
    <rect
       style="fill:#784421;stroke-width:0.30133396"
       id="rect3798-3-5-8-2"
       width="10.331453"
       height="10.331453"
       x="35.999744"
       y="47.309292"
       transform="matrix(0.62886095,-0.77751779,0.62886095,0.77751779,0,0)" />
    <rect
       style="fill:#784421;stroke-width:0.30133396"
       id="rect3798-3-0-8"
       width="10.331453"
       height="10.331453"
       x="46.331192"
       y="57.640751"
       transform="matrix(0.62886095,-0.77751779,0.62886095,0.77751779,0,0)" />
    <rect
       style="fill:#784421;stroke-width:0.30133396"
       id="rect3798-3-5-5-2"
       width="10.331453"
       height="10.331453"
       x="56.662643"
       y="67.972191"
       transform="matrix(0.62886095,-0.77751779,0.62886095,0.77751779,0,0)" />
    <rect
       style="fill:#784421;stroke-width:0.30133396"
       id="rect3798-3-01-3"
       width="10.331453"
       height="10.331453"
       x="66.994095"
       y="78.303658"
       transform="matrix(0.62886095,-0.77751779,0.62886095,0.77751779,0,0)" />
    <rect
       style="fill:#784421;stroke-width:0.30133396"
       id="rect3798-3-5-6-0"
       width="10.331453"
       height="10.331453"
       x="77.325539"
       y="88.635124"
       transform="matrix(0.62886095,-0.77751779,0.62886095,0.77751779,0,0)" />
    <rect
       style="fill:#784421;stroke-width:0.30133396"
       id="rect3798-3-5-7-1"
       width="10.331453"
       height="10.331453"
       x="87.65699"
       y="98.966583"
       transform="matrix(0.62886095,-0.77751779,0.62886095,0.77751779,0,0)" />
    <rect
       style="fill:#784421;stroke-width:0.30133396"
       id="rect3798-3-4-9-5"
       width="10.331453"
       height="10.331453"
       x="97.988441"
       y="109.29801"
       transform="matrix(0.62886095,-0.77751779,0.62886095,0.77751779,0,0)" />
    <rect
       style="fill:#784421;stroke-width:0.30133396"
       id="rect3798-3-5-8-5-3"
       width="10.331453"
       height="10.331453"
       x="108.3199"
       y="119.62948"
       transform="matrix(0.62886095,-0.77751779,0.62886095,0.77751779,0,0)" />
    <rect
       style="fill:#784421;stroke-width:0.30133396"
       id="rect3798-3-0-2-1"
       width="10.331453"
       height="10.331453"
       x="118.65134"
       y="129.96095"
       transform="matrix(0.62886095,-0.77751779,0.62886095,0.77751779,0,0)" />
    <rect
       style="fill:#784421;stroke-width:0.30133396"
       id="rect3798-3-5-5-9-8"
       width="10.331453"
       height="10.331453"
       x="128.98277"
       y="140.29243"
       transform="matrix(0.62886095,-0.77751779,0.62886095,0.77751779,0,0)" />
    <rect
       style="fill:#784421;stroke-width:0.30133396"
       id="rect3798-3-01-5-3"
       width="10.331453"
       height="10.331453"
       x="139.31424"
       y="150.62386"
       transform="matrix(0.62886095,-0.77751779,0.62886095,0.77751779,0,0)" />
    <rect
       style="fill:#784421;stroke-width:0.30133396"
       id="rect3798-3-5-6-6-6"
       width="10.331453"
       height="10.331453"
       x="149.64571"
       y="160.95535"
       transform="matrix(0.62886095,-0.77751779,0.62886095,0.77751779,0,0)" />
  </g>
  <g
     inkscape:label="Layer 1"
     inkscape:groupmode="layer"
     id="layer1">
    <rect
       id="rect3770"
       width="209.74991"
       height="288.73886"
       x="0.41341147"
       y="8.7933741"
       style="fill:#deaa87;stroke-width:0.29421747" />
    <rect
       style="fill:#deaa87;stroke-width:0.30133906"
       id="rect3798"
       width="10.414515"
       height="10.249395"
       x="-3.7754335"
       y="7.5040636"
       transform="matrix(0.6364519,-0.77131639,0.62108581,0.78374257,0,0)"
       inkscape:transform-center-x="87.156705"
       inkscape:transform-center-y="38.814078" />
    <rect
       style="fill:#deaa87;stroke-width:0.30133396"
       id="rect3798-3"
       width="10.331451"
       height="10.331453"
       x="6.4718566"
       y="17.781324"
       transform="matrix(0.62886095,-0.77751779,0.62886095,0.77751779,0,0)" />
    <rect
       style="fill:#deaa87;stroke-width:0.30133396"
       id="rect3798-3-5"
       width="10.331451"
       height="10.331453"
       x="16.803307"
       y="28.112778"
       transform="matrix(0.62886095,-0.77751779,0.62886095,0.77751779,0,0)" />
    <rect
       style="fill:#deaa87;stroke-width:0.30133396"
       id="rect3798-3-4"
       width="10.331451"
       height="10.331453"
       x="27.134756"
       y="38.444237"
       transform="matrix(0.62886095,-0.77751779,0.62886095,0.77751779,0,0)" />
    <rect
       style="fill:#deaa87;stroke-width:0.30133396"
       id="rect3798-3-5-8"
       width="10.331451"
       height="10.331453"
       x="37.466225"
       y="48.775703"
       transform="matrix(0.62886095,-0.77751779,0.62886095,0.77751779,0,0)" />
    <rect
       style="fill:#deaa87;stroke-width:0.30133396"
       id="rect3798-3-0"
       width="10.331451"
       height="10.331453"
       x="47.797672"
       y="59.107155"
       transform="matrix(0.62886095,-0.77751779,0.62886095,0.77751779,0,0)" />
    <rect
       style="fill:#deaa87;stroke-width:0.30133396"
       id="rect3798-3-5-5"
       width="10.331451"
       height="10.331453"
       x="58.129124"
       y="69.438599"
       transform="matrix(0.62886095,-0.77751779,0.62886095,0.77751779,0,0)" />
    <rect
       style="fill:#deaa87;stroke-width:0.30133396"
       id="rect3798-3-01"
       width="10.331451"
       height="10.331453"
       x="68.460571"
       y="79.770058"
       transform="matrix(0.62886095,-0.77751779,0.62886095,0.77751779,0,0)" />
    <rect
       style="fill:#deaa87;stroke-width:0.30133396"
       id="rect3798-3-5-6"
       width="10.331451"
       height="10.331453"
       x="78.792023"
       y="90.101517"
       transform="matrix(0.62886095,-0.77751779,0.62886095,0.77751779,0,0)" />
    <rect
       style="fill:#deaa87;stroke-width:0.30133396"
       id="rect3798-3-5-7"
       width="10.331451"
       height="10.331453"
       x="89.123466"
       y="100.43296"
       transform="matrix(0.62886095,-0.77751779,0.62886095,0.77751779,0,0)" />
    <rect
       style="fill:#deaa87;stroke-width:0.30133396"
       id="rect3798-3-4-9"
       width="10.331451"
       height="10.331453"
       x="99.454918"
       y="110.7644"
       transform="matrix(0.62886095,-0.77751779,0.62886095,0.77751779,0,0)" />
    <rect
       style="fill:#deaa87;stroke-width:0.30133396"
       id="rect3798-3-5-8-5"
       width="10.331451"
       height="10.331453"
       x="109.78638"
       y="121.09589"
       transform="matrix(0.62886095,-0.77751779,0.62886095,0.77751779,0,0)" />
    <rect
       style="fill:#deaa87;stroke-width:0.30133396"
       id="rect3798-3-0-2"
       width="10.331451"
       height="10.331453"
       x="120.11784"
       y="131.42735"
       transform="matrix(0.62886095,-0.77751779,0.62886095,0.77751779,0,0)" />
    <rect
       style="fill:#deaa87;stroke-width:0.30133396"
       id="rect3798-3-5-5-9"
       width="10.331451"
       height="10.331453"
       x="130.44928"
       y="141.75882"
       transform="matrix(0.62886095,-0.77751779,0.62886095,0.77751779,0,0)" />
    <rect
       style="fill:#deaa87;stroke-width:0.30133396"
       id="rect3798-3-01-5"
       width="10.331451"
       height="10.331453"
       x="140.78073"
       y="152.09026"
       transform="matrix(0.62886095,-0.77751779,0.62886095,0.77751779,0,0)" />
    <rect
       style="fill:#deaa87;stroke-width:0.30133396"
       id="rect3798-3-5-6-6"
       width="10.331451"
       height="10.331453"
       x="151.11218"
       y="162.42172"
       transform="matrix(0.62886095,-0.77751779,0.62886095,0.77751779,0,0)" />
    <path
       style="opacity:1;vector-effect:none;fill:none;fill-opacity:1;stroke:#000000;stroke-width:0.26458332px;stroke-linecap:butt;stroke-linejoin:miter;stroke-miterlimit:4;stroke-dasharray:none;stroke-dashoffset:0;stroke-opacity:1"
       d="M 232.52448,82.115299 Z"
       id="path3931"
       inkscape:connector-curvature="0" />
    <path
       style="opacity:1;vector-effect:none;fill:none;fill-opacity:1;stroke:#000000;stroke-width:0.29608604px;stroke-linecap:butt;stroke-linejoin:miter;stroke-miterlimit:4;stroke-dasharray:none;stroke-dashoffset:0;stroke-opacity:1"
       d="M 0.41341146,297.53225 V 8.7933719 L 2.2577853,8.7933055 8.8861227,0.76041963 15.251877,8.7933093 21.748924,0.76042339 28.245971,8.793313 l 6.497045,-8.03288711 6.49705,8.03289341 6.497047,-8.03288589 6.497064,8.03288589 6.497047,-8.03288589 6.49705,8.03289219 6.49704,-8.03289219 6.49705,8.03288969 6.497039,-8.03288969 6.49705,8.03289219 6.497045,-8.03288593 6.497052,8.03289213 6.49704,-8.03288587 6.49705,8.03288967 6.49704,-8.03289593 6.49704,8.03288593 6.49705,-8.03288593 6.49707,8.03289963 6.49705,-8.03288711 6.49704,8.03288711 6.49705,-8.03288711 6.49704,8.03288341 6.49706,-8.03286963 6.49704,8.03288593 6.49705,-8.03288593 6.49706,8.03289963 6.49704,-8.03288586 6.49705,8.03289216 V 297.53225 Z"
       id="path3933"
       inkscape:connector-curvature="0" />
    <path
       style="opacity:1;vector-effect:none;fill:none;fill-opacity:1;stroke:#000000;stroke-width:0.29608604px;stroke-linecap:butt;stroke-linejoin:miter;stroke-miterlimit:4;stroke-dasharray:none;stroke-dashoffset:0;stroke-opacity:1"
       d="M 63.157459,311.25915 Z"
       id="path3935"
       inkscape:connector-curvature="0" />
  </g>
</svg>
