<?xml version="1.0" encoding="UTF-8" standalone="no"?>
<!-- Created with Inkscape (http://www.inkscape.org/) -->

<svg
   xmlns:dc="http://purl.org/dc/elements/1.1/"
   xmlns:cc="http://creativecommons.org/ns#"
   xmlns:rdf="http://www.w3.org/1999/02/22-rdf-syntax-ns#"
   xmlns:svg="http://www.w3.org/2000/svg"
   xmlns="http://www.w3.org/2000/svg"
   xmlns:sodipodi="http://sodipodi.sourceforge.net/DTD/sodipodi-0.dtd"
   xmlns:inkscape="http://www.inkscape.org/namespaces/inkscape"
   width="210mm"
   height="297mm"
   viewBox="0 0 210 297"
   version="1.1"
   id="svg3768"
   inkscape:version="0.92.1 r15371"
   sodipodi:docname="paperbag.svg">
  <defs
     id="defs3762" />
  <sodipodi:namedview
     id="base"
     pagecolor="#ffffff"
     bordercolor="#666666"
     borderopacity="1.0"
     inkscape:pageopacity="0.0"
     inkscape:pageshadow="2"
     inkscape:zoom="0.64"
     inkscape:cx="575.83693"
     inkscape:cy="749.16835"
     inkscape:document-units="mm"
     inkscape:current-layer="layer2"
     showgrid="false"
     inkscape:measure-start="0,0"
     inkscape:measure-end="0,0"
     inkscape:window-width="1366"
     inkscape:window-height="705"
     inkscape:window-x="-8"
     inkscape:window-y="-8"
     inkscape:window-maximized="1"
     inkscape:snap-bbox="true" />
  <metadata
     id="metadata3765">
    <rdf:RDF>
      <cc:Work
         rdf:about="">
        <dc:format>image/svg+xml</dc:format>
        <dc:type
           rdf:resource="http://purl.org/dc/dcmitype/StillImage" />
        <dc:title></dc:title>
      </cc:Work>
    </rdf:RDF>
  </metadata>
  <g
     inkscape:groupmode="layer"
     id="layer2"
     inkscape:label="Layer 2">
    <rect
       style="fill:#784421;stroke-width:0.2662915"
       id="rect3798-1"
       width="9.223897"
       height="9.0370483"
       x="-47.865685"
       y="48.830505"
       transform="matrix(0.71860497,-0.6954185,0.70440635,0.70979694,0,0)"
       inkscape:transform-center-x="87.156705"
       inkscape:transform-center-y="30.994049" />
    <rect
       style="fill:#784421;stroke-width:0.26629183"
       id="rect3798-3-1"
       width="9.1300087"
       height="9.1300087"
       x="-39.22562"
       y="57.48563"
       transform="matrix(0.71161462,-0.70257002,0.71161462,0.70257002,0,0)" />
    <rect
       style="fill:#784421;stroke-width:0.26629183"
       id="rect3798-3-5-77"
       width="9.1300087"
       height="9.1300087"
       x="-30.095615"
       y="66.615646"
       transform="matrix(0.71161462,-0.70257002,0.71161462,0.70257002,0,0)" />
    <rect
       style="fill:#784421;stroke-width:0.26629183"
       id="rect3798-3-4-3"
       width="9.1300087"
       height="9.1300087"
       x="-20.965611"
       y="75.745644"
       transform="matrix(0.71161462,-0.70257002,0.71161462,0.70257002,0,0)" />
    <rect
       style="fill:#784421;stroke-width:0.26629183"
       id="rect3798-3-5-8-2"
       width="9.1300087"
       height="9.1300087"
       x="-11.835587"
       y="84.875664"
       transform="matrix(0.71161462,-0.70257002,0.71161462,0.70257002,0,0)" />
    <rect
       style="fill:#784421;stroke-width:0.26629183"
       id="rect3798-3-0-8"
       width="9.1300087"
       height="9.1300087"
       x="-2.7055855"
       y="94.005676"
       transform="matrix(0.71161462,-0.70257002,0.71161462,0.70257002,0,0)" />
    <rect
       style="fill:#784421;stroke-width:0.26629183"
       id="rect3798-3-5-5-2"
       width="9.1300087"
       height="9.1300087"
       x="6.4244232"
       y="103.13567"
       transform="matrix(0.71161462,-0.70257002,0.71161462,0.70257002,0,0)" />
    <rect
       style="fill:#784421;stroke-width:0.26629183"
       id="rect3798-3-01-3"
       width="9.1300087"
       height="9.1300087"
       x="15.554432"
       y="112.26569"
       transform="matrix(0.71161462,-0.70257002,0.71161462,0.70257002,0,0)" />
    <rect
       style="fill:#784421;stroke-width:0.26629183"
       id="rect3798-3-5-6-0"
       width="9.1300087"
       height="9.1300087"
       x="24.684429"
       y="121.39571"
       transform="matrix(0.71161462,-0.70257002,0.71161462,0.70257002,0,0)" />
    <rect
       style="fill:#784421;stroke-width:0.26629183"
       id="rect3798-3-5-7-1"
       width="9.1300087"
       height="9.1300087"
       x="33.814434"
       y="130.52573"
       transform="matrix(0.71161462,-0.70257002,0.71161462,0.70257002,0,0)" />
    <rect
       style="fill:#784421;stroke-width:0.26629183"
       id="rect3798-3-4-9-5"
       width="9.1300087"
       height="9.1300087"
       x="42.944439"
       y="139.65572"
       transform="matrix(0.71161462,-0.70257002,0.71161462,0.70257002,0,0)" />
    <rect
       style="fill:#784421;stroke-width:0.26629183"
       id="rect3798-3-5-8-5-3"
       width="9.1300087"
       height="9.1300087"
       x="52.074459"
       y="148.78574"
       transform="matrix(0.71161462,-0.70257002,0.71161462,0.70257002,0,0)" />
    <rect
       style="fill:#784421;stroke-width:0.26629183"
       id="rect3798-3-0-2-1"
       width="9.1300087"
       height="9.1300087"
       x="61.204464"
       y="157.91576"
       transform="matrix(0.71161462,-0.70257002,0.71161462,0.70257002,0,0)" />
    <rect
       style="fill:#784421;stroke-width:0.26629183"
       id="rect3798-3-5-5-9-8"
       width="9.1300087"
       height="9.1300087"
       x="70.334457"
       y="167.04579"
       transform="matrix(0.71161462,-0.70257002,0.71161462,0.70257002,0,0)" />
    <rect
       style="fill:#784421;stroke-width:0.26629183"
       id="rect3798-3-01-5-3"
       width="9.1300087"
       height="9.1300087"
       x="79.464478"
       y="176.17578"
       transform="matrix(0.71161462,-0.70257002,0.71161462,0.70257002,0,0)" />
    <rect
       style="fill:#784421;stroke-width:0.26629183"
       id="rect3798-3-5-6-6-6"
       width="9.1300087"
       height="9.1300087"
       x="88.594482"
       y="185.30582"
       transform="matrix(0.71161462,-0.70257002,0.71161462,0.70257002,0,0)" />
  </g>
  <g
     inkscape:label="Layer 1"
     inkscape:groupmode="layer"
     id="layer1">
    <rect
       id="rect3770"
       width="209.74991"
       height="230.56548"
       x="0"
       y="67.946426"
       style="fill:#deaa87;stroke-width:0.26291355" />
    <rect
       style="fill:#deaa87;stroke-width:0.2662915"
       id="rect3798"
       width="9.223897"
       height="9.0370483"
       x="-46.556412"
       y="50.113182"
       transform="matrix(0.71860498,-0.6954185,0.70440634,0.70979695,0,0)"
       inkscape:transform-center-x="87.156705"
       inkscape:transform-center-y="30.994049" />
    <rect
       style="fill:#deaa87;stroke-width:0.26629183"
       id="rect3798-3"
       width="9.1300068"
       height="9.1300087"
       x="-37.929676"
       y="58.781506"
       transform="matrix(0.71161462,-0.70257002,0.71161462,0.70257002,0,0)" />
    <rect
       style="fill:#deaa87;stroke-width:0.26629183"
       id="rect3798-3-5"
       width="9.1300068"
       height="9.1300087"
       x="-28.799671"
       y="67.911514"
       transform="matrix(0.71161462,-0.70257002,0.71161462,0.70257002,0,0)" />
    <rect
       style="fill:#deaa87;stroke-width:0.26629183"
       id="rect3798-3-4"
       width="9.1300068"
       height="9.1300087"
       x="-19.669664"
       y="77.041527"
       transform="matrix(0.71161462,-0.70257002,0.71161462,0.70257002,0,0)" />
    <rect
       style="fill:#deaa87;stroke-width:0.26629183"
       id="rect3798-3-5-8"
       width="9.1300068"
       height="9.1300087"
       x="-10.539645"
       y="86.171547"
       transform="matrix(0.71161462,-0.70257002,0.71161462,0.70257002,0,0)" />
    <rect
       style="fill:#deaa87;stroke-width:0.26629183"
       id="rect3798-3-0"
       width="9.1300068"
       height="9.1300087"
       x="-1.4096394"
       y="95.301552"
       transform="matrix(0.71161462,-0.70257002,0.71161462,0.70257002,0,0)" />
    <rect
       style="fill:#deaa87;stroke-width:0.26629183"
       id="rect3798-3-5-5"
       width="9.1300068"
       height="9.1300087"
       x="7.7203646"
       y="104.43156"
       transform="matrix(0.71161462,-0.70257002,0.71161462,0.70257002,0,0)" />
    <rect
       style="fill:#deaa87;stroke-width:0.26629183"
       id="rect3798-3-01"
       width="9.1300068"
       height="9.1300087"
       x="16.85037"
       y="113.56157"
       transform="matrix(0.71161462,-0.70257002,0.71161462,0.70257002,0,0)" />
    <rect
       style="fill:#deaa87;stroke-width:0.26629183"
       id="rect3798-3-5-6"
       width="9.1300068"
       height="9.1300087"
       x="25.980375"
       y="122.69158"
       transform="matrix(0.71161462,-0.70257002,0.71161462,0.70257002,0,0)" />
    <rect
       style="fill:#deaa87;stroke-width:0.26629183"
       id="rect3798-3-5-7"
       width="9.1300068"
       height="9.1300087"
       x="35.110378"
       y="131.82158"
       transform="matrix(0.71161462,-0.70257002,0.71161462,0.70257002,0,0)" />
    <rect
       style="fill:#deaa87;stroke-width:0.26629183"
       id="rect3798-3-4-9"
       width="9.1300068"
       height="9.1300087"
       x="44.240383"
       y="140.95158"
       transform="matrix(0.71161462,-0.70257002,0.71161462,0.70257002,0,0)" />
    <rect
       style="fill:#deaa87;stroke-width:0.26629183"
       id="rect3798-3-5-8-5"
       width="9.1300068"
       height="9.1300087"
       x="53.370403"
       y="150.08162"
       transform="matrix(0.71161462,-0.70257002,0.71161462,0.70257002,0,0)" />
    <rect
       style="fill:#deaa87;stroke-width:0.26629183"
       id="rect3798-3-0-2"
       width="9.1300068"
       height="9.1300087"
       x="62.500408"
       y="159.21162"
       transform="matrix(0.71161462,-0.70257002,0.71161462,0.70257002,0,0)" />
    <rect
       style="fill:#deaa87;stroke-width:0.26629183"
       id="rect3798-3-5-5-9"
       width="9.1300068"
       height="9.1300087"
       x="71.630417"
       y="168.34164"
       transform="matrix(0.71161462,-0.70257002,0.71161462,0.70257002,0,0)" />
    <rect
       style="fill:#deaa87;stroke-width:0.26629183"
       id="rect3798-3-01-5"
       width="9.1300068"
       height="9.1300087"
       x="80.760422"
       y="177.47165"
       transform="matrix(0.71161462,-0.70257002,0.71161462,0.70257002,0,0)" />
    <rect
       style="fill:#deaa87;stroke-width:0.26629183"
       id="rect3798-3-5-6-6"
       width="9.1300068"
       height="9.1300087"
       x="89.890427"
       y="186.60167"
       transform="matrix(0.71161462,-0.70257002,0.71161462,0.70257002,0,0)" />
    <path
       style="opacity:1;vector-effect:none;fill:none;fill-opacity:1;stroke:#000000;stroke-width:0.26458332px;stroke-linecap:butt;stroke-linejoin:miter;stroke-miterlimit:4;stroke-dasharray:none;stroke-dashoffset:0;stroke-opacity:1"
       d="M 232.52448,82.115299 Z"
       id="path3931"
       inkscape:connector-curvature="0" />
    <path
       style="opacity:1;vector-effect:none;fill:none;fill-opacity:1;stroke:#000000;stroke-width:0.26458332px;stroke-linecap:butt;stroke-linejoin:miter;stroke-miterlimit:4;stroke-dasharray:none;stroke-dashoffset:0;stroke-opacity:1"
       d="M 0,298.51191 V 67.946425 l 1.8443738,-5.3e-5 6.6283374,-6.414468 6.3657548,6.414471 6.497047,-6.414468 6.497047,6.414471 6.497045,-6.414469 6.49705,6.414474 6.497047,-6.414468 6.497064,6.414468 6.497047,-6.414468 6.49705,6.414473 6.49704,-6.414473 6.49705,6.414471 6.497039,-6.414471 6.49705,6.414473 6.497045,-6.414468 6.497053,6.414473 6.49704,-6.414468 6.49705,6.414471 6.49704,-6.414476 6.49704,6.414468 6.49705,-6.414468 6.49707,6.414479 6.49705,-6.414469 6.49704,6.414469 6.49705,-6.414469 6.49704,6.414466 6.49706,-6.414455 6.49704,6.414468 6.49705,-6.414468 6.49706,6.414479 6.49704,-6.414468 6.49705,6.414473 V 298.51191 Z"
       id="path3933"
       inkscape:connector-curvature="0" />
    <path
       style="opacity:1;vector-effect:none;fill:none;fill-opacity:1;stroke:#000000;stroke-width:0.26458332px;stroke-linecap:butt;stroke-linejoin:miter;stroke-miterlimit:4;stroke-dasharray:none;stroke-dashoffset:0;stroke-opacity:1"
       d="M 62.744048,309.4732 Z"
       id="path3935"
       inkscape:connector-curvature="0" />
  </g>
</svg>
